PathFileType	4	(X/Y/Z)	Patient4_TMGait_0pt7_01_right_47.trc.trc
DataRate	CameraRate	NumFrames	NumMarkers	Units	OrigDataRate	OrigDataStartFrame	OrigNumFrames
81.395348837209	81.395348837209	4	33	mm	81.395348837209	71	       141
Frame#	Time	Sacral			L.Shoulder			Chest			R.Shoulder			Neck			R.ASIS			L.ASIS			R.Thigh.Superior			R.Thigh.Lateral			R.Thigh.Inferior			R.Patella			L.Thigh.Superior			L.Thigh.Lateral			L.Thigh.Inferior			L.Patella			L.Shank.Superior			L.Shank.Lateral			L.Shank.Inferior			R.Shank.Superior			R.Shank.Lateral			R.Shank.Inferior			R.Heel			R.Midfoot.Superior			R.Midfoot.Lateral			R.Toe			L.Heel			L.Midfoot.Lateral			L.Midfoot.Superior			L.Toe			L.Elbow			L.Wrist			R.Elbow			R.Wrist			
		X1	Y1	Z1	X2	Y2	Z2	X3	Y3	Z3	X4	Y4	Z4	X5	Y5	Z5	X6	Y6	Z6	X7	Y7	Z7	X8	Y8	Z8	X9	Y9	Z9	X10	Y10	Z10	X11	Y11	Z11	X12	Y12	Z12	X13	Y13	Z13	X14	Y14	Z14	X15	Y15	Z15	X16	Y16	Z16	X17	Y17	Z17	X18	Y18	Z18	X19	Y19	Z19	X20	Y20	Z20	X21	Y21	Z21	X22	Y22	Z22	X23	Y23	Z23	X24	Y24	Z24	X25	Y25	Z25	X26	Y26	Z26	X27	Y27	Z27	X28	Y28	Z28	X29	Y29	Z29	X30	Y30	Z30	X31	Y31	Z31	X32	Y32	Z32	X33	Y33	Z33	

71	54.800000000000	850.192654528988	1008.800599341295	533.752877763071	1030.942676599428	1420.484749521896	330.703343965971	1151.418308087626	1339.686401476797	474.134250770053	1102.616663727355	1424.512008923218	654.584249795421	1061.616774801650	1479.729018392144	483.350263243740	1076.784268539839	930.377152434744	636.463946552760	1047.473803279536	941.939368398850	361.040934319487	1059.429013215820	717.279298137715	612.069766726059	947.172731183306	631.509004472000	673.692532012669	1001.515537564396	562.204361909670	593.585850702482	978.535426911778	480.894234579607	596.896200862817	1120.081987155272	771.665325499829	396.607529136632	1079.781279047429	641.320377064505	312.663941565906	1184.626365965075	585.972431509547	374.398450337320	1213.838914706083	520.485591859870	369.729343213348	1198.303664274666	447.014496057733	358.034271285767	1133.274812318573	317.074695322915	306.281345880802	1222.082682524775	218.292938210393	358.741430747509	939.317230471456	399.204258340009	602.359899793520	858.211949588540	303.311186725405	664.541142557474	888.081248689488	205.942743156307	596.254054606569	739.256282566455	46.570722369224	564.861443415482	913.545840836796	96.436967503029	595.808549265497	824.880554958226	37.156667660311	635.880223903926	1033.082043861875	39.484218855761	617.741995854361	1140.131075544471	41.604950558123	395.518185474725	1213.701618489751	45.982805405184	315.166659144305	1286.260434136126	120.077265006710	337.424288714023	1418.809625749724	87.125780642976	310.819030559698	850.120283361260	1118.037342970125	245.017716855892	789.602489349952	864.306910698283	274.533422542529	1285.700647682419	1145.477836135428	743.700986155273	1480.780268932874	1242.044659014500	616.351323970094	
72	54.812285714286	851.483726719253	1006.892126611575	530.770678375521	1030.594148894151	1419.578166554010	329.093145499074	1151.055359900041	1339.256053877694	472.802831757198	1101.025731474935	1423.213888780144	653.327047709487	1060.561483489661	1478.704679490984	481.936587985274	1077.988802552201	929.120341102043	634.765310759347	1049.825313066840	940.107495125805	359.312415936128	1059.884900989549	715.755819392761	610.770538681551	946.592316562071	630.773115700839	672.219955614580	1000.595712036918	560.808618207938	592.520386796433	976.408510411645	479.393327733497	595.711546123922	1122.126469158962	768.564804145589	394.760393304780	1079.120878541814	637.714570663220	313.087136116676	1184.442805661808	582.407925453506	374.117442851716	1212.333456416346	516.254438149697	370.542933897760	1196.294487053935	442.708768979756	359.012401927985	1129.529653021129	313.306963532676	308.531434711647	1217.157668270867	213.849028575697	361.223469807505	936.070595756258	397.992009206426	601.424200664513	853.444743793151	303.649480957254	663.949261955242	881.653035342896	205.588945698164	596.044623579087	730.769551023163	47.542112701484	565.176705641220	905.215066643799	96.470783146375	595.960623508875	816.374301413526	37.438241835683	636.125585513242	1024.489482383528	39.239578782352	617.799493496184	1132.069284419855	40.144566551259	399.062293883662	1205.178867969419	42.939682401583	318.109676130014	1279.991957748964	114.422468457962	340.466731884847	1411.524028631257	77.648446912113	312.666779766458	848.075021635971	1118.911244763222	243.167793590810	786.109215269965	865.484311420040	274.616083827913	1286.376146248423	1145.576105471953	741.129486369603	1478.520630657188	1247.163260164291	613.624373887761	
73	54.824571428571	852.791731960373	1005.326909237585	527.731930809668	1030.431695590043	1418.833073817571	327.272949953761	1150.855364368004	1339.017421141557	471.318949126744	1099.622595927954	1422.195496840479	651.919277834704	1059.737652927306	1477.926105920334	480.256818094978	1079.263981802013	927.972381842621	632.864057182146	1052.122066226164	938.671623159417	357.458097211170	1060.594454700772	714.390006487748	609.325359412181	946.366261093074	630.146165009788	670.576721739496	1000.141429573036	559.516596934048	591.319398054418	974.754848411966	477.953737948789	594.367298657752	1124.211145148874	765.969444995012	392.880834797875	1078.752432420701	634.818151250492	313.329120690140	1184.393426017603	579.452451031527	373.900280716500	1210.920088028603	512.534488257206	371.353843145777	1194.287152961246	438.860476016346	359.874299456689	1125.720522850613	310.197275584295	310.244594244670	1211.675207667772	209.809045693270	363.406894758987	933.265940228496	396.876595421670	600.397509985657	849.005040089899	304.229361712887	663.297470551224	875.465817332109	205.429574639818	595.868425066722	722.367415232355	48.947808273733	565.585129084000	897.056512854341	96.629499659477	596.212446003404	807.935118361673	37.896089765065	636.404741623543	1015.916933872937	38.965677480525	617.859561017820	1122.944327473670	39.063171810252	401.816571812424	1195.829713855891	40.420182027190	320.484079578310	1272.806326320188	109.273693343412	343.291836404873	1403.416239438162	68.720230013402	314.638476401877	846.855105236024	1119.461321381641	241.098183084353	783.878923655487	866.242031661825	274.313906735599	1286.093329558740	1145.086953672013	739.127162794502	1475.797699250384	1250.801316164163	611.613325242749	
74	54.836857142857	854.082978666113	1004.220131599293	524.690136395712	1030.478207843796	1418.333992279714	325.274547782605	1150.850153311955	1339.015021020420	469.680343757314	1098.506001415589	1421.521695619751	650.361376237171	1059.202286182141	1477.459231744873	478.340656660696	1080.562150552728	927.012687816356	630.752687225331	1054.286042696040	937.720839350627	355.457409922328	1061.442092579042	713.264133286206	607.719423199297	946.410551661014	629.702480416081	668.783917910334	1000.060897694016	558.412457486445	589.990678636636	973.530644938187	476.627747639443	592.918204962922	1126.251924231198	764.032076307813	391.017360490727	1078.728901700866	632.804031083618	313.268831356471	1184.454727111951	577.238043646432	373.653498144523	1209.613642451629	509.498739794826	371.999882040746	1192.343491430882	435.645875585939	360.495460240451	1122.033211904430	307.868818964353	311.267148276256	1205.890554563348	206.379909219797	365.154667756396	930.849837564809	395.935356359105	599.327974715792	844.846410094297	305.113542048889	662.613331934785	869.514491245380	205.537493765675	595.756177418481	714.069083400759	50.866688703723	566.090992871744	889.101583927834	96.935310978891	596.577643398846	799.574021874632	38.576198828064	636.720323576783	1007.367648046562	38.672723780314	617.917609799403	1113.280689015490	38.347974758334	403.738856351203	1186.136768516161	38.503017043490	322.221608078173	1265.022254925444	104.933189919006	345.711740617123	1394.857603305601	60.945239791182	316.526734858560	846.493532583225	1119.747982533294	238.800771787316	782.971694103814	866.622169588320	273.576593134793	1284.844411150150	1144.001852281899	737.723658423378	1472.697668332786	1252.935850020630	610.343798132846	
